<?xml version="1.0" encoding="UTF-8"?>
<svg width="150px" height="36px" viewBox="0 0 150 36" version="1.1" xmlns="http://www.w3.org/2000/svg" xmlns:xlink="http://www.w3.org/1999/xlink">
    <title>logo</title>
    <defs>
        <path d="M4.11428571,8.22857143 C1.84202846,8.22857143 0,6.38654297 0,4.11428571 C0,1.84202846 1.84202846,0 4.11428571,0 L12.9438714,0 C13.6713223,0 14.3689788,0.288978762 14.8833643,0.803364257 L21.7729953,7.69299526 C22.1159189,8.03591892 22.3085714,8.50102322 22.3085714,8.98599051 L22.3085714,26.9714286 L22.3085714,26.9714286 C22.3085714,29.2436858 20.466543,31.0857143 18.1942857,31.0857143 C15.9220285,31.0857143 13.1657143,29.2436858 13.1657143,26.9714286 L13.1657143,8.22857143 L4.11428571,8.22857143 Z" id="path-1"></path>
        <linearGradient x1="50%" y1="0%" x2="50%" y2="100%" id="linearGradient-3">
            <stop stop-color="#FFFFFF" stop-opacity="0.8" offset="0%"></stop>
            <stop stop-color="#FFFFFF" stop-opacity="0.4" offset="100%"></stop>
        </linearGradient>
    </defs>
    <g id="控件" stroke="none" stroke-width="1" fill="none" fill-rule="evenodd">
        <g id="header" transform="translate(-32.000000, -12.000000)">
            <g id="logo" transform="translate(32.000000, 12.000000)">
                <g id="编组" transform="translate(2.000000, 3.457143)">
                    <g id="编组-2" transform="translate(0.000000, 0.457143)">
                        <mask id="mask-2" fill="white">
                            <use xlink:href="#path-1"></use>
                        </mask>
                        <use id="路径" fill-opacity="0" fill="#FFFFFF" xlink:href="#path-1"></use>
                        <path d="M13.8971429,8.22857143 L22.3085714,8.22857143 L22.3085714,26.88 C22.3085714,29.2027519 20.425609,31.0857143 18.1028571,31.0857143 C15.7801053,31.0857143 13.8971429,29.2027519 13.8971429,26.88 L13.8971429,8.22857143 L13.8971429,8.22857143 Z" id="矩形" fill="url(#linearGradient-3)" mask="url(#mask-2)"></path>
                        <path d="M4.11428571,0 L12.9438714,0 C13.6713223,2.70403469e-16 14.3689788,0.288978762 14.8833643,0.803364257 L22.3085714,8.22857143 L22.3085714,8.22857143 L4.11428571,8.22857143 C1.84202846,8.22857143 2.27651947e-13,6.38654297 2.27373675e-13,4.11428571 C2.27095404e-13,1.84202846 1.84202846,-4.70771533e-16 4.11428571,0 Z" id="矩形" fill="#FFFFFF" mask="url(#mask-2)"></path>
                    </g>
                    <circle id="椭圆形" fill="#FFFFFF" cx="28.3428571" cy="4.57142857" r="4.57142857"></circle>
                </g>
                <path d="M59,27.5 L61.44,26.46 C60.98,24.1 59.56,20.46 58.24,17.62 L56.06,18.46 C56.7,19.96 57.36,21.66 57.86,23.24 L53.66,23.84 C54.94,19.82 56.16,14.82 56.9,10 L54.26,9.56 C53.6,14.68 52.1,20.42 51.58,21.96 C51.04,23.54 50.7,24.4 50.1,24.6 C50.36,25.3 50.78,26.5 50.9,26.96 C51.11,26.858 51.347,26.7686 51.73628,26.6675 L51.9004106,26.6263784 C52.851064,26.396144 54.6196,26.0936 58.54,25.46 C58.74,26.22 58.9,26.9 59,27.5 Z M47.12,27.44 C47.86,27.38 48.38,27.2 48.88,26.64 C49.56,25.94 50.02,24.1 50.44,20.08 C50.52,19.74 50.54,19.06 50.54,19.06 L45.66,19.06 C45.76,18.3 45.84,17.52 45.92,16.72 L50.58,16.72 L50.58,10 L43.56,10 L43.56,12.2 L48.28,12.2 L48.28,14.54 L43.96,14.54 C43.8,16.7 43.44,19.42 43.12,21.18 L48.04,21.18 C47.74,23.52 47.4,24.68 47.02,25.04 C46.78,25.24 46.56,25.26 46.2,25.26 C45.76,25.26 44.74,25.24 43.74,25.16 C44.14,25.8 44.42,26.78 44.44,27.46 C45.5,27.52 46.54,27.52 47.12,27.44 Z M63.78,27.98 C65.42,25.54 65.84,21.64 65.92,18.72 L68.52,18.72 C68.46,21.24 68.38,22.2 68.18,22.48 C68.02,22.68 67.86,22.72 67.58,22.72 C67.26,22.72 66.58,22.7 65.86,22.64 C66.22,23.24 66.48,24.16 66.52,24.86 C67.44,24.88 68.3,24.88 68.82,24.8 C69.42,24.7 69.82,24.52 70.2,24 C70.66,23.42 70.78,21.64 70.84,17.44 C70.84,17.16 70.86,16.54 70.86,16.54 L65.92,16.54 L65.92,14.4 L71.72,14.4 C71.98,17.4 72.42,20.2 73.1,22.46 C71.94,23.76 70.56,24.86 69.02,25.7 C69.52,26.16 70.38,27.14 70.74,27.66 C71.98,26.9 73.1,26 74.12,24.94 C75,26.58 76.1,27.58 77.5,27.58 C79.36,27.58 80.16,26.7 80.54,23 C79.9,22.74 79.06,22.22 78.52,21.66 C78.42,24.16 78.18,25.16 77.7,25.16 C77.06,25.16 76.42,24.32 75.84,22.88 C77.28,20.94 78.46,18.62 79.28,16.02 L76.9,15.44 C76.42,17.06 75.76,18.54 74.98,19.88 C74.64,18.28 74.36,16.4 74.18,14.4 L80.36,14.4 L80.36,12.04 L78.28,12.04 L79.24,11.02 C78.54,10.36 77.08,9.44 75.98,8.88 L74.54,10.3 C75.36,10.8 76.36,11.44 77.1,12.04 L74.04,12.04 C74,11.06 73.98,10.08 74,9.08 L71.5,9.08 C71.5,10.08 71.54,11.06 71.58,12.04 L63.42,12.04 L63.42,17.88 C63.42,20.48 63.28,23.96 61.76,26.36 C62.3,26.64 63.36,27.52 63.78,27.98 Z M89.82,27.88 C91.66,26.36 93.36,23.98 94.4,21.3 L96.12,21.3 C95.84,24 95.44,25.22 95.06,25.58 C94.86,25.8 94.68,25.82 94.32,25.82 L94.0841473,25.8195192 C93.6743802,25.8173554 93.0272727,25.8054545 92.34,25.74 C92.7,26.3 92.94,27.16 92.96,27.76 C93.96,27.78 94.9,27.78 95.46,27.72 C96.08,27.66 96.6,27.48 97.08,26.96 C97.74,26.3 98.2,24.48 98.62,20.16 C98.66,19.86 98.7,19.22 98.7,19.22 L87.64,19.22 C87.94,18.82 88.22,18.42 88.48,18 L97.1,18 L97.1,9.9 L83.94,9.9 L83.94,18 L85.7,18 C84.48,19.64 82.72,21.08 80.9,22.04 C81.4,22.4 82.3,23.28 82.7,23.72 C83.74,23.08 84.82,22.24 85.8,21.3 L87.54,21.3 C86.28,23.08 84.46,24.62 82.5,25.6 C83,25.98 83.88,26.82 84.26,27.3 C86.5,25.92 88.74,23.78 90.22,21.3 L91.94,21.3 C91.04,23.4 89.62,25.22 87.94,26.42 C88.48,26.74 89.42,27.48 89.82,27.88 Z M94.68,13.06 L86.28,13.06 L86.28,11.82 L94.68,11.82 L94.68,13.06 Z M94.68,16.1 L86.28,16.1 L86.28,14.84 L94.68,14.84 L94.68,16.1 Z M111.94,27.64 C112.92,27.6 113.54,27.46 114.14,26.94 C114.84,26.34 115.3,25 115.74,22.36 C115.82,22.06 115.9,21.4 115.9,21.4 L108.06,21.4 C108.3,20.92 108.52,20.42 108.74,19.92 L116.46,19.92 L116.46,18.12 L109.62,18.12 C110.34,17.64 111.04,17.18 111.72,16.66 L118.46,16.66 L118.46,14.66 L114.16,14.66 C115.48,13.5 116.68,12.24 117.7,10.92 L115.86,9.88 C115.22,10.68 114.54,11.46 113.78,12.2 L113.78,11.14 L109.76,11.14 L109.76,9.06 L107.42,9.06 L107.42,11.14 L102.68,11.14 L102.68,13.08 L107.42,13.08 L107.42,14.66 L101,14.66 L101,16.66 L108.06,16.66 C105.62,18.16 102.98,19.4 100.36,20.3 C100.66,20.82 101.12,21.9 101.26,22.44 C102.92,21.8 104.58,21.02 106.22,20.14 C105.7,21.26 105.08,22.42 104.56,23.32 L113.14,23.32 C112.88,24.5 112.6,25.14 112.26,25.38 C112,25.56 111.7,25.58 111.24,25.58 C110.66,25.58 109.04,25.54 107.68,25.44 C108.12,26.04 108.46,26.96 108.48,27.64 C109.88,27.7 111.2,27.7 111.94,27.64 Z M110.94,14.66 L109.76,14.66 L109.76,13.08 L112.84,13.08 C112.26,13.64 111.62,14.14 110.94,14.66 Z M136.5,24.08 C137.14,23.76 137.32,23.28 137.32,22.3 L137.32,14.06 L134.64,14.06 L134.68,14.02 C134.38,13.86 134.02,13.66 133.64,13.48 C134.96,12.68 136.26,11.66 137.26,10.7 L135.86,9.56 L135.38,9.68 L126.2,9.68 L126.2,11.48 L133.34,11.48 C132.82,11.88 132.24,12.26 131.66,12.6 C130.76,12.22 129.82,11.84 129.06,11.56 L127.52,12.82 C128.4,13.18 129.4,13.62 130.38,14.06 L126.02,14.06 L126.02,24.36 L128.26,24.36 L128.26,21.36 L130.56,21.36 L130.56,24.28 L132.68,24.28 L132.68,21.36 L135.04,21.36 L135.04,22.28 C135.04,22.48 134.98,22.56 134.74,22.58 L134.356409,22.5790383 C134.050744,22.5773554 133.627273,22.5727273 133.22,22.56 C133.48,23.08 133.72,23.84 133.82,24.42 C135,24.42 135.88,24.42 136.5,24.08 Z M123.24,14.62 L124.96,12.98 C124.18,12.1 122.54,10.7 121.36,9.78 L119.76,11.2 C120.94,12.24 122.52,13.68 123.24,14.62 Z M130.56,16.86 L128.26,16.86 L128.26,15.78 L130.56,15.78 L130.56,16.86 Z M135.04,16.86 L132.68,16.86 L132.68,15.78 L135.04,15.78 L135.04,16.86 Z M120.8,27.66 C121.64,26.44 122.62,25.26 123.22,25.26 C123.66,25.26 124.32,25.86 125.12,26.34 C126.5,27.12 128.12,27.34 130.62,27.34 C132.74,27.34 136.06,27.22 137.6,27.14 C137.64,26.52 137.98,25.46 138.24,24.86 C136.16,25.14 132.84,25.32 130.68,25.32 C128.52,25.32 126.74,25.2 125.42,24.42 C124.96,24.16 124.6,23.9 124.3,23.7 L124.3,16.68 L119.5,16.68 L119.5,18.88 L122.02,18.88 L122.02,23.64 C121.16,24.04 120.22,24.76 119.34,25.66 L120.8,27.66 Z M135.04,19.64 L132.68,19.64 L132.68,18.52 L135.04,18.52 L135.04,19.64 Z M130.56,19.64 L128.26,19.64 L128.26,18.52 L130.56,18.52 L130.56,19.64 Z" id="弘成易考通" fill="#FFFFFF" fill-rule="nonzero"></path>
            </g>
        </g>
    </g>
</svg>